HIERARCHY
ROOT Hip
{
	OFFSET 1.693791 -0.682932 -0.556875
	CHANNELS 6 Xposition Yposition Zposition Xrotation Yrotation Zrotation
	JOINT LowerSpine
	{
		OFFSET -0.032607 0.112973 0.278635
		CHANNELS 6 Xposition Yposition Zposition Xrotation Yrotation Zrotation
		JOINT MiddleSpine
		{
			OFFSET 0.024022 -0.037839 0.233147
			CHANNELS 3 Xrotation Yrotation Zrotation
			JOINT Chest
			{
				OFFSET 0.004097 0.020339 0.298559
				CHANNELS 3 Xrotation Yrotation Zrotation
				JOINT Neck
				{
					OFFSET 0.051635 -0.065286 0.656136
					CHANNELS 6 Xposition Yposition Zposition Xrotation Yrotation Zrotation
					JOINT Head
					{
						OFFSET 0.067485 -0.137317 0.355470
						CHANNELS 3 Xrotation Yrotation Zrotation
						End Site
						{
							OFFSET 0.005107 -0.007704 0.052850
						}
					}
				}
				JOINT LClavicle
				{
					OFFSET 0.179506 -0.234424 0.602006
					CHANNELS 6 Xposition Yposition Zposition Xrotation Yrotation Zrotation
					JOINT LShoulder
					{
						OFFSET 0.282531 0.253195 0.098005
						CHANNELS 3 Xrotation Yrotation Zrotation
						JOINT LForearm
						{
							OFFSET 0.769179 0.306195 -0.032889
							CHANNELS 3 Xrotation Yrotation Zrotation
							JOINT LHand
							{
								OFFSET 0.642686 0.253204 -0.023284
								CHANNELS 3 Xrotation Yrotation Zrotation
								JOINT LFinger1
								{
									OFFSET 0.277839 0.025183 0.002849
									CHANNELS 6 Xposition Yposition Zposition Xrotation Yrotation Zrotation
									JOINT LFinger11
									{
										OFFSET 0.097522 0.022686 -0.030374
										CHANNELS 3 Xrotation Yrotation Zrotation
										JOINT LFinger12
										{
											OFFSET 0.066577 0.015483 -0.020740
											CHANNELS 3 Xrotation Yrotation Zrotation
											End Site
											{
												OFFSET 0.048960 0.012481 -0.018049
											}
										}
									}
								}
								JOINT LFinger2
								{
									OFFSET 0.257891 0.089052 0.015710
									CHANNELS 6 Xposition Yposition Zposition Xrotation Yrotation Zrotation
									JOINT LFinger21
									{
										OFFSET 0.115203 0.045378 -0.004190
										CHANNELS 3 Xrotation Yrotation Zrotation
										JOINT LFinger22
										{
											OFFSET 0.063854 0.025162 -0.002302
											CHANNELS 3 Xrotation Yrotation Zrotation
											End Site
											{
												OFFSET 0.049573 0.019700 -0.005753
											}
										}
									}
								}
								JOINT LFinger3
								{
									OFFSET 0.220075 0.147355 0.016689
									CHANNELS 6 Xposition Yposition Zposition Xrotation Yrotation Zrotation
									JOINT LFinger31
									{
										OFFSET 0.101776 0.047772 -0.008860
										CHANNELS 3 Xrotation Yrotation Zrotation
										JOINT LFinger32
										{
											OFFSET 0.057993 0.027231 -0.005026
											CHANNELS 3 Xrotation Yrotation Zrotation
											End Site
											{
												OFFSET 0.048122 0.022295 -0.008112
											}
										}
									}
								}
								JOINT LFinger4
								{
									OFFSET 0.184068 0.185856 -0.012318
									CHANNELS 6 Xposition Yposition Zposition Xrotation Yrotation Zrotation
									JOINT LFinger41
									{
										OFFSET 0.056467 0.044306 -0.014208
										CHANNELS 3 Xrotation Yrotation Zrotation
										JOINT LFinger42
										{
											OFFSET 0.041407 0.032496 -0.010403
											CHANNELS 3 Xrotation Yrotation Zrotation
											End Site
											{
												OFFSET 0.041799 0.030578 -0.014015
											}
										}
									}
								}
								JOINT LFinger0
								{
									OFFSET 0.062910 -0.013990 -0.049405
									CHANNELS 6 Xposition Yposition Zposition Xrotation Yrotation Zrotation
									JOINT LFinger01
									{
										OFFSET 0.120722 -0.030780 -0.048175
										CHANNELS 3 Xrotation Yrotation Zrotation
										JOINT LFinger02
										{
											OFFSET 0.078520 -0.017931 -0.033386
											CHANNELS 3 Xrotation Yrotation Zrotation
											End Site
											{
												OFFSET 0.048732 -0.009899 -0.020145
											}
										}
									}
								}
							}
						}
					}
				}
				JOINT RClavicle
				{
					OFFSET 0.067536 -0.277823 0.606499
					CHANNELS 6 Xposition Yposition Zposition Xrotation Yrotation Zrotation
					JOINT RShoulder
					{
						OFFSET -0.371679 -0.000352 0.124278
						CHANNELS 3 Xrotation Yrotation Zrotation
						JOINT RForearm
						{
							OFFSET -0.774746 -0.292228 0.029067
							CHANNELS 3 Xrotation Yrotation Zrotation
							JOINT RHand
							{
								OFFSET -0.645271 -0.246006 0.028400
								CHANNELS 3 Xrotation Yrotation Zrotation
								JOINT RFinger1
								{
									OFFSET -0.221339 -0.168299 0.022883
									CHANNELS 6 Xposition Yposition Zposition Xrotation Yrotation Zrotation
									JOINT RFinger11
									{
										OFFSET -0.089194 -0.049685 -0.022882
										CHANNELS 3 Xrotation Yrotation Zrotation
										JOINT RFinger12
										{
											OFFSET -0.060890 -0.033923 -0.015630
											CHANNELS 3 Xrotation Yrotation Zrotation
											End Site
											{
												OFFSET -0.045709 -0.024212 -0.014250
											}
										}
									}
								}
								JOINT RFinger2
								{
									OFFSET -0.248735 -0.107320 0.036040
									CHANNELS 6 Xposition Yposition Zposition Xrotation Yrotation Zrotation
									JOINT RFinger21
									{
										OFFSET -0.115660 -0.044106 0.005077
										CHANNELS 3 Xrotation Yrotation Zrotation
										JOINT RFinger22
										{
											OFFSET -0.064114 -0.024436 0.002833
											CHANNELS 3 Xrotation Yrotation Zrotation
											End Site
											{
												OFFSET -0.050161 -0.018957 -0.001750
											}
										}
									}
								}
								JOINT RFinger3
								{
									OFFSET -0.260060 -0.038746 0.035959
									CHANNELS 6 Xposition Yposition Zposition Xrotation Yrotation Zrotation
									JOINT RFinger31
									{
										OFFSET -0.107711 -0.033425 -0.000454
										CHANNELS 3 Xrotation Yrotation Zrotation
										JOINT RFinger32
										{
											OFFSET -0.061383 -0.019039 -0.000236
											CHANNELS 3 Xrotation Yrotation Zrotation
											End Site
											{
												OFFSET -0.051005 -0.016126 -0.004134
											}
										}
									}
								}
								JOINT RFinger4
								{
									OFFSET -0.261479 0.013162 0.005561
									CHANNELS 6 Xposition Yposition Zposition Xrotation Yrotation Zrotation
									JOINT RFinger41
									{
										OFFSET -0.072388 -0.005638 -0.009037
										CHANNELS 3 Xrotation Yrotation Zrotation
										JOINT RFinger42
										{
											OFFSET -0.053084 -0.004129 -0.006608
											CHANNELS 3 Xrotation Yrotation Zrotation
											End Site
											{
												OFFSET -0.052334 -0.005908 -0.010238
											}
										}
									}
								}
								JOINT RFinger0
								{
									OFFSET -0.040352 -0.054011 -0.045258
									CHANNELS 6 Xposition Yposition Zposition Xrotation Yrotation Zrotation
									JOINT RFinger01
									{
										OFFSET -0.071535 -0.105301 -0.040466
										CHANNELS 3 Xrotation Yrotation Zrotation
										JOINT RFinger02
										{
											OFFSET -0.048076 -0.067000 -0.028304
											CHANNELS 3 Xrotation Yrotation Zrotation
											End Site
											{
												OFFSET -0.030625 -0.040658 -0.016960
											}
										}
									}
								}
							}
						}
					}
				}
			}
		}
	}
	JOINT RThigh
	{
		OFFSET -0.285243 -0.101277 0.131235
		CHANNELS 6 Xposition Yposition Zposition Xrotation Yrotation Zrotation
		JOINT RShin
		{
			OFFSET -0.123134 0.132283 -1.195794
			CHANNELS 3 Xrotation Yrotation Zrotation
			JOINT RFoot
			{
				OFFSET -0.100556 0.137783 -1.175015
				CHANNELS 3 Xrotation Yrotation Zrotation
				JOINT RToe
				{
					OFFSET 0.085295 -0.237349 -0.166995
					CHANNELS 3 Xrotation Yrotation Zrotation
					End Site
					{
						OFFSET 0.018943 -0.049643 -0.007442
					}
				}
			}
		}
	}
	JOINT LThigh
	{
		OFFSET 0.287340 0.120655 0.108266
		CHANNELS 6 Xposition Yposition Zposition Xrotation Yrotation Zrotation
		JOINT LShin
		{
			OFFSET -0.081678 0.148352 -1.197466
			CHANNELS 3 Xrotation Yrotation Zrotation
			JOINT LFoot
			{
				OFFSET -0.100556 0.137783 -1.175015
				CHANNELS 3 Xrotation Yrotation Zrotation
				JOINT LToe
				{
					OFFSET 0.085295 -0.237351 -0.166999
					CHANNELS 3 Xrotation Yrotation Zrotation
					End Site
					{
						OFFSET 0.018943 -0.049643 -0.007442
					}
				}
			}
		}
	}
}
MOTION
Frames: 5
Frame Time: 0.041667
-0.824015 3.026879 2.114074 5.107477 6.601766 154.630661 -0.032606 0.112974 0.278635 0.000009 0.000003 0.000007 -2.058019 0.722988 -0.520034 -6.839031 2.478820 -1.632192 0.051635 -0.065287 0.656136 -3.633739 -2.182812 -0.221823 2.306423 -7.021474 -1.106128 0.179506 -0.234425 0.602007 -1.934481 4.432669 0.732330 21.737910 19.200428 -33.869395 0.133354 9.675999 -71.610196 -61.851673 12.974671 -9.383478 0.277839 0.025183 0.002849 -0.000004 0.000000 0.000008 1.193413 -3.163366 -0.440708 -0.000000 -0.000014 -0.000003 0.257890 0.089052 0.015710 -0.000002 -0.000007 0.000000 -0.000001 -0.000004 -0.000002 0.000003 0.000000 0.000002 0.220075 0.147355 0.016689 -0.000003 -0.000004 0.000007 -0.000003 0.000005 -0.000000 -0.000000 0.000005 -0.000003 0.184067 0.185856 -0.012317 0.000003 0.000000 0.000006 0.000002 -0.000004 0.000005 -0.000003 -0.000005 0.000002 0.062909 -0.013990 -0.049405 0.000003 -0.000008 0.000008 0.000018 -0.000010 0.000008 0.000005 0.000004 0.000009 0.067536 -0.277824 0.606500 6.003519 -15.108066 -0.924386 62.986768 -43.843999 35.449156 0.029957 -0.038452 0.331714 -0.000012 0.000043 0.000044 -0.221339 -0.168298 0.022884 -0.000043 -0.000052 -0.000064 0.000002 0.000008 -0.000002 -0.000006 0.000026 0.000009 -0.248735 -0.107319 0.036040 -0.000031 -0.000011 -0.000085 -0.000008 0.000001 -0.000007 0.000005 0.000004 -0.000004 -0.260060 -0.038745 0.035959 -0.000010 -0.000025 -0.000107 0.000006 -0.000008 0.000007 -0.000004 0.000007 0.000007 -0.261479 0.013163 0.005561 -0.000007 -0.000037 -0.000153 0.000004 -0.000026 -0.000014 0.000001 -0.000007 0.000005 -0.040352 -0.054011 -0.045258 0.000024 -0.000023 -0.000057 0.000032 -0.000025 -0.000003 -0.000016 -0.000002 -0.000007 -0.337352 -0.008046 0.207783 -11.072809 20.353306 3.630295 23.566495 8.595991 -2.746960 1.004033 0.789217 -0.625764 -21.914773 -8.418621 -0.744709 0.242502 0.213193 0.345315 -9.254884 2.245560 1.045323 9.355489 3.570399 -0.667630 1.443385 1.614579 -1.621556 -3.010779 -1.169933 0.090126 
-0.824015 3.026879 2.114074 5.107477 6.601766 154.630661 -0.032606 0.112974 0.278635 0.000009 0.000003 0.000007 -2.058019 0.722988 -0.520034 -6.839031 2.478820 -1.632192 0.051635 -0.065287 0.656136 -3.633739 -2.182812 -0.221823 2.306423 -7.021474 -1.106128 0.179506 -0.234425 0.602007 -1.934481 4.432669 0.732330 21.737910 19.200428 -33.869395 0.133354 9.675999 -71.610196 -61.851673 12.974671 -9.383478 0.277839 0.025183 0.002849 -0.000004 0.000000 0.000008 1.193413 -3.163366 -0.440708 -0.000000 -0.000014 -0.000003 0.257890 0.089052 0.015710 -0.000002 -0.000007 0.000000 -0.000001 -0.000004 -0.000002 0.000003 0.000000 0.000002 0.220075 0.147355 0.016689 -0.000003 -0.000004 0.000007 -0.000003 0.000005 -0.000000 -0.000000 0.000005 -0.000003 0.184067 0.185856 -0.012317 0.000003 0.000000 0.000006 0.000002 -0.000004 0.000005 -0.000003 -0.000005 0.000002 0.062909 -0.013990 -0.049405 0.000003 -0.000008 0.000008 0.000018 -0.000010 0.000008 0.000005 0.000004 0.000009 0.067536 -0.277824 0.606500 6.003519 -15.108066 -0.924386 62.986768 -43.843999 35.449156 0.029957 -0.038452 0.331714 -0.000012 0.000043 0.000044 -0.221339 -0.168298 0.022884 -0.000043 -0.000052 -0.000064 0.000002 0.000008 -0.000002 -0.000006 0.000026 0.000009 -0.248735 -0.107319 0.036040 -0.000031 -0.000011 -0.000085 -0.000008 0.000001 -0.000007 0.000005 0.000004 -0.000004 -0.260060 -0.038745 0.035959 -0.000010 -0.000025 -0.000107 0.000006 -0.000008 0.000007 -0.000004 0.000007 0.000007 -0.261479 0.013163 0.005561 -0.000007 -0.000037 -0.000153 0.000004 -0.000026 -0.000014 0.000001 -0.000007 0.000005 -0.040352 -0.054011 -0.045258 0.000024 -0.000023 -0.000057 0.000032 -0.000025 -0.000003 -0.000016 -0.000002 -0.000007 -0.337352 -0.008046 0.207783 -11.072809 20.353306 3.630295 23.566495 8.595991 -2.746960 1.004033 0.789217 -0.625764 -21.914773 -8.418621 -0.744709 0.242502 0.213193 0.345315 -9.254884 2.245560 1.045323 9.355489 3.570399 -0.667630 1.443385 1.614579 -1.621556 -3.010779 -1.169933 0.090126 
-0.831697 3.025862 2.114643 4.846392 6.237849 153.129686 -0.032607 0.112973 0.278635 0.000007 0.000004 0.000012 -1.970917 0.574800 -0.623630 -6.547862 1.996909 -2.001330 0.051635 -0.065287 0.656136 -3.952017 -3.078977 -0.556466 2.545753 -5.988602 -0.994132 0.179506 -0.234425 0.602007 -2.056840 4.499171 0.744592 21.842385 19.287512 -33.314384 0.194874 9.758290 -72.359079 -61.851666 12.974677 -9.383478 0.277838 0.025183 0.002849 -0.000003 -0.000005 0.000008 1.193413 -3.163366 -0.440708 0.000001 -0.000013 -0.000005 0.257890 0.089053 0.015710 -0.000001 -0.000004 0.000002 -0.000002 0.000000 0.000000 0.000004 0.000001 0.000004 0.220075 0.147356 0.016689 -0.000004 -0.000001 0.000006 -0.000003 0.000001 0.000001 0.000001 0.000004 -0.000001 0.184067 0.185856 -0.012318 0.000003 -0.000004 0.000003 -0.000000 0.000000 -0.000001 -0.000001 -0.000003 0.000007 0.062910 -0.013990 -0.049405 0.000003 -0.000009 0.000009 0.000019 -0.000010 0.000008 0.000002 0.000004 0.000007 0.067536 -0.277824 0.606500 6.074847 -14.794717 -0.655616 57.307848 -48.573146 31.602592 0.089412 -0.114393 0.989758 -0.000010 0.000042 0.000042 -0.221340 -0.168298 0.022884 -0.000037 -0.000050 -0.000063 0.000003 0.000010 -0.000001 -0.000006 0.000024 0.000006 -0.248735 -0.107319 0.036040 -0.000031 -0.000011 -0.000088 -0.000010 0.000001 -0.000012 0.000005 0.000004 -0.000007 -0.260060 -0.038745 0.035959 -0.000010 -0.000025 -0.000105 0.000009 -0.000009 0.000009 -0.000004 0.000008 0.000006 -0.261479 0.013163 0.005561 -0.000004 -0.000037 -0.000154 0.000004 -0.000027 -0.000015 0.000002 -0.000005 0.000005 -0.040352 -0.054011 -0.045258 0.000019 -0.000020 -0.000058 0.000031 -0.000024 0.000002 -0.000020 -0.000009 -0.000003 -0.337198 -0.008167 0.207760 -12.565699 20.513177 3.463462 23.689837 8.636620 -2.770243 1.311501 0.974817 -0.746685 -21.249716 -8.172874 -0.675039 0.242502 0.213193 0.345316 -9.874992 2.034783 0.568957 9.618681 3.668632 -0.694738 2.091664 2.038830 -1.931528 -3.570004 -1.387704 0.100095 
-0.834183 3.024196 2.114346 4.584048 6.004741 152.230122 -0.032606 0.112973 0.278636 0.000007 0.000004 0.000009 -1.928818 0.502816 -0.674373 -6.408384 1.762498 -2.181962 0.051635 -0.065286 0.656136 -4.104394 -3.414129 -0.675844 2.538828 -5.520417 -0.935505 0.179506 -0.234424 0.602007 -2.108153 4.530850 0.750761 21.769181 18.988978 -33.703128 0.158626 9.710385 -71.925785 -61.851673 12.974675 -9.383476 0.277838 0.025183 0.002849 -0.000007 -0.000001 0.000009 1.193414 -3.163368 -0.440708 -0.000000 -0.000015 -0.000005 0.257890 0.089053 0.015710 -0.000003 -0.000003 0.000002 -0.000001 0.000002 -0.000005 0.000004 0.000002 0.000002 0.220075 0.147356 0.016688 -0.000006 0.000001 0.000002 -0.000004 0.000002 -0.000000 0.000001 0.000004 -0.000003 0.184067 0.185856 -0.012318 0.000002 0.000002 0.000004 0.000003 0.000000 0.000001 -0.000006 -0.000001 0.000005 0.062909 -0.013990 -0.049405 0.000002 -0.000003 0.000011 0.000013 -0.000012 0.000007 -0.000002 0.000004 0.000006 0.067536 -0.277824 0.606500 6.107174 -14.661085 -0.536578 55.142972 -49.973998 30.087427 0.160275 -0.201534 1.753773 -0.000012 0.000041 0.000046 -0.221339 -0.168299 0.022884 -0.000038 -0.000053 -0.000060 0.000004 0.000010 0.000001 -0.000008 0.000026 0.000009 -0.248735 -0.107319 0.036040 -0.000030 -0.000012 -0.000089 -0.000009 0.000002 -0.000012 0.000004 0.000004 -0.000005 -0.260060 -0.038746 0.035959 -0.000009 -0.000024 -0.000105 0.000008 -0.000009 0.000007 -0.000003 0.000007 0.000006 -0.261479 0.013162 0.005561 -0.000004 -0.000037 -0.000154 0.000004 -0.000027 -0.000016 -0.000000 -0.000005 0.000006 -0.040352 -0.054012 -0.045258 0.000023 -0.000017 -0.000061 0.000038 -0.000020 0.000004 -0.000013 -0.000001 -0.000003 -0.336939 -0.008370 0.207732 -13.540207 20.327312 3.469176 23.873161 8.696905 -2.805017 1.592377 1.047548 -0.708526 -20.979788 -8.072834 -0.647571 0.242502 0.213193 0.345316 -10.287371 1.785808 0.438110 9.863890 3.760018 -0.720399 2.288782 1.829384 -1.523325 -3.742594 -1.454930 0.102742 
-0.836011 3.020581 2.113403 4.168602 5.730129 151.375474 -0.032607 0.112974 0.278635 0.000005 0.000004 0.000008 -1.899114 0.457825 -0.715999 -6.309749 1.617150 -2.328149 0.051635 -0.065286 0.656136 -4.243692 -3.552143 -0.713172 2.469046 -5.419617 -0.919835 0.179506 -0.234425 0.602007 -2.134209 4.544621 0.753860 21.523296 18.367217 -34.287806 0.122140 9.661889 -71.496358 -61.851673 12.974675 -9.383474 0.277838 0.025183 0.002848 -0.000004 0.000000 0.000010 1.193412 -3.163366 -0.440707 -0.000000 -0.000011 -0.000004 0.257890 0.089052 0.015709 -0.000001 -0.000001 0.000004 0.000002 -0.000001 -0.000003 0.000003 -0.000001 0.000002 0.220075 0.147355 0.016688 -0.000003 0.000002 0.000007 -0.000004 0.000004 0.000005 -0.000001 0.000007 -0.000001 0.184067 0.185856 -0.012318 0.000003 0.000001 0.000006 0.000005 -0.000006 -0.000000 -0.000005 -0.000003 -0.000002 0.062909 -0.013990 -0.049405 0.000003 -0.000004 0.000012 0.000018 -0.000013 0.000007 0.000005 0.000001 0.000009 0.067536 -0.277824 0.606500 6.127140 -14.588343 -0.466643 54.444121 -50.181110 29.749060 0.234680 -0.289967 2.538663 -0.000012 0.000042 0.000042 -0.221340 -0.168299 0.022884 -0.000041 -0.000051 -0.000061 0.000003 0.000010 -0.000003 -0.000003 0.000025 0.000009 -0.248735 -0.107319 0.036040 -0.000031 -0.000010 -0.000087 -0.000009 0.000002 -0.000007 0.000003 0.000003 -0.000007 -0.260060 -0.038746 0.035959 -0.000009 -0.000024 -0.000108 0.000008 -0.000009 0.000009 -0.000003 0.000007 0.000006 -0.261479 0.013162 0.005561 -0.000005 -0.000036 -0.000154 0.000006 -0.000025 -0.000015 0.000002 -0.000006 0.000006 -0.040352 -0.054012 -0.045258 0.000018 -0.000021 -0.000058 0.000038 -0.000023 0.000009 -0.000021 -0.000002 -0.000003 -0.336576 -0.008654 0.207704 -14.618647 19.853798 3.552334 24.193297 8.801858 -2.866191 2.018221 1.138975 -0.626054 -20.895284 -8.041475 -0.639074 0.242502 0.213193 0.345316 -10.750001 1.402019 0.365296 10.082936 3.841537 -0.743646 2.287756 1.364746 -0.827282 -3.705551 -1.440502 0.102193 
